# xmcd CD database file
#
# Track frame offsets:
#	150
#	14336
#	52415
#	62502
#	97273
#	120602
#	132270
#	144709
#	152872
#	164880
#	191728
#	217808
#
# Disc length: 3583 seconds
#
# Revision: 0
# Processed by: cddbd v1.5.2PL0 Copyright (c) Steve Scherf et al.
# Submitted via: CDex 1.70beta2
#
DISCID=bb0dfd0c
DTITLE=Lionel Belmondo - Clairières dans le ciel
DYEAR=1900
DGENRE=Jazz
TTITLE0=Lionel Belmondo - Tantum ergo
TTITLE1=Lionel Belmondo - Lamento
TTITLE2=Lionel Belmondo - Nous nous aimerons tant
TTITLE3=Lionel Belmondo - Demain fera un an
TTITLE4=Lionel Belmondo - Enigma
TTITLE5=Lionel Belmondo - Les lilas qui avaient fleuri
TTITLE6=Lionel Belmondo - Vox lumina
TTITLE7=Lionel Belmondo - Eclosion
TTITLE8=Lionel Belmondo - Diptyque
TTITLE9=Lionel Belmondo - Diane, S￩l￩n￩ - L'absent
TTITLE10=Lionel Belmondo - Je garde une m￩daille d'elle
TTITLE11=Lionel Belmondo - A Sylogism
EXTD=
EXTT0=
EXTT1=
EXTT2=
EXTT3=
EXTT4=
EXTT5=
EXTT6=
EXTT7=
EXTT8=
EXTT9=
EXTT10=
EXTT11=
PLAYORDER=
